<?xml version="1.0" encoding="utf-8"?>
<!-- Generator: Adobe Illustrator 27.8.1, SVG Export Plug-In . SVG Version: 6.00 Build 0)  -->
<svg version="1.1" id="Layer_1" xmlns="http://www.w3.org/2000/svg" xmlns:xlink="http://www.w3.org/1999/xlink" x="0px" y="0px"
	 viewBox="0 0 60 60" style="enable-background:new 0 0 60 60;" xml:space="preserve">
<style type="text/css">
	.st0{fill:none;stroke:#000000;stroke-width:0.5;stroke-miterlimit:10;}
	.st1{fill:#505050;}
	.st2{opacity:0.43;fill:#505050;enable-background:new    ;}
</style>
<path d="M31.1,26.6h17l-4.9-7.1H31.1V26.6z"/>
<circle class="st0" cx="14" cy="45.3" r="1.8"/>
<path class="st0" d="M14,39.1c-3.4,0-6.2,2.8-6.2,6.2s2.8,6.2,6.2,6.2s6.2-2.8,6.2-6.2S17.4,39.1,14,39.1z M14,48.8
	c-2,0-3.6-1.6-3.6-3.6s1.6-3.6,3.6-3.6s3.6,1.6,3.6,3.6S16,48.8,14,48.8z"/>
<circle class="st0" cx="46" cy="45.3" r="1.8"/>
<path class="st0" d="M46,39.1c-3.4,0-6.2,2.8-6.2,6.2s2.8,6.2,6.2,6.2c3.4,0,6.2-2.8,6.2-6.2S49.4,39.1,46,39.1z M46,48.8
	c-2,0-3.6-1.6-3.6-3.6s1.6-3.6,3.6-3.6c2,0,3.6,1.6,3.6,3.6S47.9,48.8,46,48.8z"/>
<path class="st1" d="M30.9,26.6h17l-4.9-7.1H30.9V26.6z"/>
<path class="st1" d="M14.4,26.6h10.2v-7.1h-7.6L14.4,26.6z"/>
<path class="st1" d="M2.5,33.7h2.7v2.7H2.5V33.7z"/>
<path class="st1" d="M54.8,35.5c0,0.5,0.4,0.9,0.9,0.9h1.8v-1.8h-1.8C55.2,34.6,54.8,35,54.8,35.5z"/>
<path class="st0" d="M57.5,38.2h-1.8c-1.5,0-2.7-1.2-2.7-2.7s1.2-2.7,2.7-2.7h1.8v-0.4c0-1.3-0.9-2.3-2.1-2.6l-5.9-1.5H30
	c-0.5,0-0.9-0.4-0.9-0.9v-8.9c0-0.5,0.4-0.9,0.9-0.9h11.7l-1.3-1.9c-0.7-1-1.8-1.6-3-1.6H15.8c-1.5,0-2.8,0.9-3.3,2.3L8,28.6
	l-3.7,1.2c-1,0.3-1.6,1.1-1.8,2.1h2.6c1,0,1.8,0.8,1.8,1.8v2.7c0,1-0.8,1.8-1.8,1.8H2.5v2.7h4.9c1.4-2.1,3.9-3.6,6.6-3.6
	s5.2,1.4,6.6,3.6h18.7c1.4-2.1,3.9-3.6,6.6-3.6c2.8,0,5.2,1.4,6.6,3.6h4.9V38.2z M25.5,32.8h-1.8c-0.5,0-0.9-0.4-0.9-0.9
	c0-0.5,0.4-0.9,0.9-0.9h1.8c0.5,0,0.9,0.4,0.9,0.9C26.4,32.4,26,32.8,25.5,32.8z M26.4,27.5c0,0.5-0.4,0.9-0.9,0.9H13.1
	c-0.3,0-0.6-0.1-0.7-0.4c-0.2-0.2-0.2-0.5-0.1-0.8l3.3-8.9c0.1-0.3,0.5-0.6,0.8-0.6h9.1c0.5,0,0.9,0.4,0.9,0.9V27.5z M31.8,32.8H30
	c-0.5,0-0.9-0.4-0.9-0.9c0-0.5,0.4-0.9,0.9-0.9h1.8c0.5,0,0.9,0.4,0.9,0.9C32.6,32.4,32.2,32.8,31.8,32.8z"/>
<path class="st1" d="M1.6,42.6V47c0,0.5,0.4,0.9,0.9,0.9h4C6.2,47.1,6,46.2,6,45.3c0-0.9,0.2-1.8,0.5-2.7H1.6z"/>
<path class="st1" d="M21.5,42.6c0.3,0.8,0.5,1.7,0.5,2.7c0,0.9-0.2,1.8-0.5,2.7h16.9c-0.3-0.8-0.5-1.7-0.5-2.7
	c0-0.9,0.2-1.8,0.5-2.7H21.5z"/>
<path class="st1" d="M53.5,42.6c0.3,0.8,0.5,1.7,0.5,2.7c0,0.9-0.2,1.8-0.5,2.7h4c0.5,0,0.9-0.4,0.9-0.9v-4.4H53.5z"/>
<g>
	<g>
		<g>
			<polygon points="24.2,2.8 24.2,4.6 25,4.6 25,3.7 29.2,3.7 29.2,4.6 30,4.6 30,2.8 			"/>
		</g>
	</g>
	<g>
		<g>
			<path d="M32.6,5.7L32.6,5.7v8.5l0,0c0.8,0,1.7-0.9,1.7-2V7.7C34.1,6.6,33.4,5.7,32.6,5.7z"/>
		</g>
	</g>
	<g>
		<g>
			<rect x="25" y="5.7" width="1.7" height="8.5"/>
		</g>
	</g>
	<g>
		<g>
			<rect x="22.5" y="5.7" width="1.7" height="8.5"/>
		</g>
	</g>
	<g>
		<g>
			<rect x="27.5" y="5.7" width="1.7" height="8.5"/>
		</g>
	</g>
	<g>
		<g>
			<rect x="30" y="5.7" width="1.7" height="8.5"/>
		</g>
	</g>
	<g>
		<g>
			<path d="M21.7,5.7c-0.8,0-1.7,0.9-1.7,2v4.5c0,1.1,0.7,2,1.7,2l0,0V5.7L21.7,5.7z"/>
		</g>
	</g>
</g>
<ellipse class="st2" cx="28.9" cy="52.9" rx="23.6" ry="3.1"/>
</svg>
