<?xml version="1.0" encoding="utf-8"?>
<!-- Generator: Adobe Illustrator 27.8.1, SVG Export Plug-In . SVG Version: 6.00 Build 0)  -->
<svg version="1.1" id="Layer_1" xmlns="http://www.w3.org/2000/svg" xmlns:xlink="http://www.w3.org/1999/xlink" x="0px" y="0px"
	 viewBox="0 0 60 60" style="enable-background:new 0 0 60 60;" xml:space="preserve">
<style type="text/css">
	.st0{fill-rule:evenodd;clip-rule:evenodd;fill:#1A1A1A;}
	.st1{fill-rule:evenodd;clip-rule:evenodd;fill:#A0A0A0;}
	.st2{fill-rule:evenodd;clip-rule:evenodd;fill:#FFFFFF;}
</style>
<g>
	<path class="st0" d="M15.9,47.3c-1.4,0-2.6-0.7-3.1-1.9c-0.7-1.6-0.2-3.6,1.4-5.4l23.6-27.3c2.5-2.9,7.3-5.9,11.4-5.9
		c1.1,0,2,0.2,2.9,0.6c0.1,0.1,0.2,0.2,0.3,0.3c2.1,4.8-2,11.4-5.4,14.4L19.8,45.6C18.5,46.8,17.2,47.3,15.9,47.3z M49.2,7.9
		c-3.7,0-8.2,2.8-10.6,5.5L15,40.7c-1.3,1.5-1.7,3-1.2,4.2c0.4,0.8,1.1,1.3,2,1.3c0.7,0,1.8-0.3,3.2-1.4l27.3-23.7
		c3.2-2.8,6.7-8.7,5.2-12.8C50.8,8,50,7.9,49.2,7.9z"/>
	<path class="st0" d="M46,56.7c-0.6,0-1.6-0.4-2.5-1.9L32.1,34c-0.1-0.2-0.1-0.6,0.1-0.7l9.7-8.4c0.1-0.1,0.4-0.2,0.6-0.1
		c0.2,0.1,0.3,0.2,0.4,0.4c1.8,5.5,7.6,23.8,6.5,27.7C48.9,54.7,47.7,56.7,46,56.7z M33.4,33.9l11.2,20.4c0.4,0.8,1,1.3,1.4,1.3
		c0.8,0,1.7-1.3,2.2-2.9c0.8-2.8-2.8-15.7-6.2-26.2L33.4,33.9z"/>
	<path class="st0" d="M26,27.7c-0.1,0-0.2,0-0.3-0.1L4.9,16.2c-1.7-0.9-2-2-1.9-2.7c0.1-1.3,1.6-2.5,3.7-3.1
		c0.4-0.1,0.8-0.1,1.3-0.1c5.8,0,23,5.5,26.4,6.6c0.2,0.1,0.3,0.2,0.4,0.4c0.1,0.2,0,0.4-0.1,0.5l-8.4,9.7
		C26.3,27.7,26.2,27.7,26,27.7z M8.2,11.4c-0.4,0-0.8,0-1,0.1c-1.6,0.4-2.8,1.3-2.9,2.1c-0.1,0.6,0.7,1.2,1.3,1.5l20.4,11.2l7.5-8.6
		C28.6,16.2,13.4,11.4,8.2,11.4z"/>
	<path class="st0" d="M17.9,54.6c-0.4,0-0.8-0.1-1.1-0.4L5.6,42.9c-0.6-0.6-0.6-1.6,0-2.2l2.6-2.6c0.2-0.2,0.6-0.4,0.9-0.4
		c0.3,0,0.5,0.1,0.8,0.1C9.9,38,10,38,10.1,38l4.9,1.4c0.2,0.1,0.4,0.2,0.4,0.4c0.1,0.2,0,0.4-0.1,0.5L15,40.7
		c-1.3,1.5-1.7,3-1.2,4.2c0.4,0.8,1.1,1.3,2,1.3c0.7,0,1.8-0.3,3.2-1.4l0.4-0.3c0.1-0.1,0.4-0.2,0.6-0.1c0.2,0.1,0.4,0.2,0.4,0.4
		l1.4,4.9l0.1,0.2c0.1,0.5,0.4,1.2-0.2,1.7L19,54.2C18.7,54.5,18.4,54.6,17.9,54.6z M9.1,39C9,39,9,39,9.1,39l-2.7,2.6
		c-0.1,0.1-0.1,0.4,0,0.5l11.3,11.3c0.1,0.1,0.4,0.1,0.5,0l2.6-2.6c0.1-0.1,0-0.2-0.1-0.6c0-0.1,0-0.1-0.1-0.2l-1.2-4.1
		c-1.2,0.9-2.4,1.4-3.6,1.4c-1.4,0-2.6-0.7-3.1-1.9c-0.7-1.5-0.3-3.4,1.1-5.1l-4.1-1.1c-0.1,0-0.1-0.1-0.2-0.1C9.4,39,9.2,39,9.1,39
		z"/>
	<path class="st0" d="M47,17.4c-0.4,0-0.7-0.1-1-0.4l-3.2-3.2c-0.6-0.6-0.6-1.4,0-2l0.6-0.6c0.4-0.4,1-0.6,1.6-0.6
		c0.6,0,1.2,0.2,1.6,0.6l2,2c0.4,0.4,0.7,1,0.7,1.6c0,0.6-0.2,1.2-0.7,1.6L48,16.9C47.7,17.2,47.4,17.4,47,17.4z M45,11.7
		c-0.3,0-0.6,0.1-0.8,0.3l-0.6,0.6c-0.1,0.1-0.1,0.1-0.1,0.2c0,0,0,0.1,0.1,0.2l3.2,3.1c0.1,0.1,0.1,0.1,0.2,0.1c0,0,0.1,0,0.2-0.1
		l0.6-0.6c0.2-0.2,0.3-0.5,0.3-0.8c0-0.3-0.1-0.6-0.3-0.8l-2-2C45.6,11.8,45.3,11.7,45,11.7z"/>
	<path class="st0" d="M45.9,37.7c0,0-0.1,0-0.1,0c-0.2,0-0.4-0.2-0.4-0.4c-0.5-1.9-1.1-4-1.8-6.1c-0.1-0.2,0-0.5,0.2-0.6
		c0.6-0.5,1.4-0.8,2.2-0.8c0.9,0,1.8,0.4,2.4,1c0.6,0.6,1,1.5,1,2.4c0,0.9-0.4,1.8-1,2.4l-2,2C46.2,37.7,46,37.7,45.9,37.7z
		 M44.8,31.3c0.5,1.6,1,3.2,1.4,4.8l1.3-1.3c0.8-0.9,0.8-2.3,0-3.2c-0.4-0.4-1-0.6-1.6-0.6C45.5,30.9,45.1,31.1,44.8,31.3z"/>
	<path class="st0" d="M47.9,45.7c-0.1,0-0.1,0-0.1,0c-0.2-0.1-0.4-0.2-0.4-0.4c-0.4-1.8-0.9-3.9-1.6-6.3c-0.1-0.2,0-0.5,0.2-0.6
		c0.6-0.5,1.4-0.8,2.2-0.8c0.9,0,1.8,0.4,2.4,1c1.3,1.3,1.3,3.5,0,4.8l-2.2,2.2C48.2,45.6,48.1,45.7,47.9,45.7z M47,39
		c0.5,1.8,0.9,3.5,1.3,4.9l1.4-1.4c0.9-0.9,0.9-2.3,0-3.2c-0.4-0.4-1-0.6-1.6-0.6C47.7,38.7,47.3,38.8,47,39z"/>
	<path class="st0" d="M28.7,16.3c-0.1,0-0.1,0-0.2,0c-2.1-0.6-4.2-1.3-6.1-1.8c-0.2-0.1-0.4-0.2-0.4-0.4c0-0.2,0-0.4,0.2-0.6l2-2
		c0.6-0.6,1.5-1,2.4-1s1.8,0.4,2.4,1c1.2,1.2,1.3,3.3,0.2,4.6C29.1,16.2,28.9,16.3,28.7,16.3z M23.7,13.6c1.5,0.4,3.1,0.9,4.8,1.4
		c0.5-0.8,0.4-2-0.3-2.7c-0.4-0.4-1-0.6-1.6-0.6s-1.2,0.2-1.6,0.6L23.7,13.6z"/>
	<path class="st0" d="M21,14c-0.1,0-0.1,0-0.1,0c-2.4-0.6-4.5-1.2-6.3-1.6c-0.2-0.1-0.4-0.2-0.4-0.4c-0.1-0.2,0-0.4,0.1-0.6l2.2-2.2
		c0.6-0.6,1.5-1,2.4-1s1.8,0.4,2.4,1c1.2,1.2,1.3,3.2,0.2,4.6C21.3,13.9,21.2,14,21,14z M15.8,11.5c1.5,0.4,3.2,0.8,4.9,1.3
		c0.5-0.8,0.4-2-0.4-2.7c-0.4-0.4-1-0.6-1.6-0.6c-0.6,0-1.2,0.2-1.6,0.6L15.8,11.5z"/>
</g>
<path class="st1" d="M22.4,14.4c-0.5-0.1-1-0.3-1.5-0.4c0,0-0.1,0-0.1,0c-2.4-0.6-4.5-1.2-6.3-1.6c0,0,0,0-0.1,0
	c-2.6-0.6-4.8-0.9-6.3-0.9c-0.4,0-0.8,0-1,0.1c-1.6,0.4-2.8,1.3-2.9,2.1c-0.1,0.6,0.7,1.2,1.3,1.5l20.4,11.2l7.5-8.6
	c-1.1-0.4-2.8-0.9-4.8-1.5c0,0,0,0,0,0C26.4,15.6,24.4,15,22.4,14.4C22.4,14.4,22.4,14.4,22.4,14.4z"/>
<path class="st1" d="M42,26.4l-8.6,7.5l11.2,20.4c0.4,0.8,1,1.3,1.4,1.3c0.8,0,1.7-1.3,2.2-2.9c0.3-1.1-0.1-3.8-0.9-7.3
	c0,0,0,0,0-0.1c-0.4-1.8-0.9-3.9-1.6-6.3c0,0,0-0.1,0-0.1c-0.1-0.5-0.3-1-0.4-1.5c0,0,0-0.1,0-0.1c-0.5-1.9-1.1-4-1.8-6.1
	c0,0,0-0.1,0-0.1C43,29.5,42.5,28,42,26.4z"/>
<path class="st2" d="M19.5,45.9c-1.2,0.9-2.4,1.4-3.6,1.4c-1.4,0-2.6-0.7-3.1-1.9c-0.7-1.5-0.3-3.4,1.1-5.1l-4.1-1.1
	c-0.1,0-0.1-0.1-0.2-0.1C9.4,39,9.2,39,9.1,39C9,39,9,39,9,39l-2.6,2.6c-0.1,0.1-0.1,0.4,0,0.5l11.3,11.3c0.1,0.1,0.4,0.1,0.5,0
	l2.6-2.6c0.1-0.1,0-0.2-0.1-0.6c0-0.1,0-0.1-0.1-0.2L19.5,45.9z"/>
<path class="st1" d="M43.6,13l3.2,3.1c0.1,0.1,0.1,0.1,0.2,0.1c0,0,0.1,0,0.2-0.1l0.6-0.6c0.2-0.2,0.3-0.5,0.3-0.8
	c0-0.3-0.1-0.6-0.3-0.8l-2-2c-0.2-0.2-0.5-0.3-0.8-0.3c-0.3,0-0.6,0.1-0.8,0.3l-0.6,0.6c-0.1,0.1-0.1,0.1-0.1,0.2
	C43.6,12.8,43.6,12.9,43.6,13z"/>
<path class="st2" d="M28.5,15c0.5-0.8,0.4-2-0.3-2.7c-0.4-0.4-1-0.6-1.6-0.6s-1.2,0.2-1.6,0.6l-1.3,1.3C25.3,14,26.9,14.5,28.5,15z"
	/>
<path class="st2" d="M20.8,12.8c0.5-0.8,0.4-2-0.4-2.7c-0.4-0.4-1-0.6-1.6-0.6c-0.6,0-1.2,0.2-1.6,0.6l-1.5,1.5
	C17.3,11.9,19,12.3,20.8,12.8z"/>
<path class="st2" d="M47,39c0.5,1.7,0.9,3.3,1.3,4.9l1.4-1.4c0.9-0.9,0.9-2.3,0-3.2c-0.4-0.4-1-0.6-1.6-0.6
	C47.7,38.7,47.4,38.8,47,39z"/>
<path class="st2" d="M46.2,36l1.3-1.3c0.8-0.9,0.8-2.3,0-3.2c-0.4-0.4-1-0.6-1.6-0.6c-0.4,0-0.8,0.1-1.1,0.3
	C45.2,32.8,45.7,34.4,46.2,36z"/>
<path class="st2" d="M47,17.4c-0.4,0-0.7-0.1-1-0.4l-3.2-3.2c-0.6-0.6-0.6-1.4,0-2l0.6-0.6c0.4-0.4,1-0.6,1.6-0.6
	c0.6,0,1.2,0.2,1.6,0.6l2,2c0.4,0.4,0.7,1,0.7,1.6c0,0.6-0.2,1.2-0.7,1.6L48,16.9C47.7,17.2,47.4,17.4,47,17.4z M13.8,44.9
	c0.4,0.8,1.1,1.3,2,1.3c0.7,0,1.8-0.3,3.2-1.4l27.3-23.7c3.2-2.8,6.7-8.7,5.2-12.8C50.8,8,50,7.9,49.2,7.9c-3.7,0-8.2,2.8-10.6,5.5
	L15,40.7C13.8,42.2,13.3,43.8,13.8,44.9z"/>
</svg>
