<?xml version="1.0" encoding="utf-8"?>
<!-- Generator: Adobe Illustrator 27.8.1, SVG Export Plug-In . SVG Version: 6.00 Build 0)  -->
<svg version="1.1" id="Layer_1" xmlns="http://www.w3.org/2000/svg" xmlns:xlink="http://www.w3.org/1999/xlink" x="0px" y="0px"
	 viewBox="0 0 60 60" style="enable-background:new 0 0 60 60;" xml:space="preserve">
<style type="text/css">
	.st0{fill:none;stroke:#231F20;stroke-width:0.5;stroke-miterlimit:10;}
	.st1{fill:#BBBBBB;}
</style>
<path class="st0" d="M32.9,48.9l-0.4,0.3c1-0.1,1.9-0.4,2.9-0.6l-0.6-1.1C34.1,48,33.5,48.5,32.9,48.9z"/>
<path class="st0" d="M38.7,43l1,3.5c2-1.3,3.8-2.9,5.2-4.8h-5.4C39.3,42.2,39,42.6,38.7,43L38.7,43z"/>
<path class="st0" d="M38.2,40.2h0.4c0.2-0.3,0.3-0.6,0.5-0.9L38.2,40.2z"/>
<path class="st0" d="M48.8,29.5c-0.1-1.7-0.4-3.3-0.8-4.9c-1,1.7-2.1,3.3-3.2,4.9H48.8z"/>
<path class="st0" d="M42.4,33.8c0,0.2,0.1,0.5,0.1,0.7c0,0.8-0.3,1.5-0.7,2.1c-0.4,1.3-0.8,2.5-1.4,3.6H46c1.7-2.7,2.6-5.9,2.8-9.2
	h-5.2c-0.3,0.4-0.7,0.9-1,1.3C42.5,32.8,42.5,33.3,42.4,33.8L42.4,33.8z"/>
<path class="st0" d="M21.6,18.8h7.3v-7L27.3,13C25,14.6,23.1,16.6,21.6,18.8z"/>
<path class="st0" d="M20.7,40.2h7.9L23,37.1c-0.2-0.1-0.4-0.3-0.4-0.6c0-0.2,0-0.5,0.2-0.6l2.3-2.3c0.2-0.2,0.5-0.3,0.8-0.2l3.1,0.9
	v-3.3H18.2C18.3,34.3,19.2,37.4,20.7,40.2L20.7,40.2z"/>
<path class="st0" d="M19,20.4h-5.6c-1.6,2.7-2.6,5.8-2.8,9.2h6.1C16.8,26.3,17.6,23.2,19,20.4z"/>
<path class="st0" d="M37.7,18.8c-1.5-2.3-3.4-4.3-5.7-5.9l-1.6-1.1v7H37.7z"/>
<path class="st0" d="M41.1,29.5c-0.1-3.2-1-6.4-2.5-9.2h-8.2v9.2H41.1z"/>
<path class="st0" d="M26.5,11.7l0.5-0.3c-5.1,0.7-9.6,3.5-12.5,7.4h5.4C21.5,16,23.7,13.6,26.5,11.7L26.5,11.7z"/>
<path class="st0" d="M22.1,41.9l4,2l1.8-2.1h-6.3c0,0,0,0,0,0C21.8,41.8,22,41.8,22.1,41.9L22.1,41.9z"/>
<path class="st0" d="M18.2,29.5h10.7v-9.2h-8.2C19.2,23.2,18.3,26.3,18.2,29.5z"/>
<path class="st0" d="M33,44.5l-3.4,2.8l0.7,1.4l1.7-1.1c0.7-0.5,1.3-1,1.9-1.5L33,44.5z"/>
<path class="st1" d="M36.5,39.7c-0.2,0.2-0.3,0.5-0.2,0.8l2.2,7.2L37.3,49l-3.3-6c-0.1-0.2-0.3-0.3-0.5-0.4c-0.2,0-0.5,0-0.6,0.2
	l-4.6,3.8c-0.3,0.2-0.4,0.6-0.2,0.9l2,4.1l-0.6,0.6l-2.9-2.9c-0.1-0.2-0.3-0.2-0.5-0.2s-0.4,0.1-0.5,0.2c-0.3,0.3-0.9,0.3-1.2,0
	c-0.2-0.2-0.2-0.4-0.2-0.6v-0.1c0,0,0,0,0,0l-0.2,0.2c-3.1,1.9-6.4,3.5-9.8,4.9c-0.7,0.3-1.5,0.4-2.2,0.4C8.6,54,6,51.4,6,48.1
	c0-0.8,0.1-1.5,0.4-2.2c1.2-2.9,2.6-5.8,4.2-8.6l0.8-1.5c-0.5-1.5-0.7-3.1-0.8-4.8h6.1c0.1,3.2,0.9,6.3,2.3,9.2h-5.7
	c-0.5-0.8-0.9-1.6-1.3-2.5l-0.2,0.3c-1.6,2.7-2.9,5.5-4.1,8.4c-0.2,0.5-0.3,1.1-0.3,1.6c0,2.4,2,4.4,4.4,4.4c0.6,0,1.1-0.1,1.6-0.3
	c3-1.2,5.9-2.7,8.7-4.3c-3.2-1.3-5.8-3.5-7.8-6.1h5.4c0.2,0.4,0.4,0.7,0.7,1l-0.7,0.7c-0.3,0.3-0.3,0.8,0,1.1l3,3
	c0.1-0.1,0.2-0.1,0.3-0.2l1-0.7l-2.7-2.7l0.6-0.6l4.1,2c0.3,0.2,0.7,0.1,0.9-0.2l3.8-4.6c0.2-0.2,0.2-0.4,0.2-0.6
	c0-0.2-0.2-0.4-0.4-0.5l-6-3.3l1.3-1.2l7.2,2.2c0.3,0.1,0.6,0,0.8-0.2l3.8-3.8c0.4-0.4,0.9-0.6,1.4-0.6c0.4,0,0.8,0.1,1.1,0.3
	c0.5,0.3,0.8,0.8,0.8,1.4c0,0.1,0,0.2,0,0.3c0,0.5-0.2,1-0.6,1.4L36.5,39.7z"/>
<path class="st1" d="M53.4,12.5c0,0.8-0.1,1.5-0.4,2.2c-1.4,3.5-3.1,6.8-5,10c-0.2-0.6-0.4-1.2-0.7-1.9c1.6-2.8,3.1-5.7,4.3-8.7
	c0.2-0.5,0.3-1.1,0.3-1.6c0-2.4-2-4.4-4.4-4.4c-0.6,0-1.1,0.1-1.6,0.3c-2.9,1.2-5.7,2.5-8.4,4.1l-0.4,0.2c3.1,1.3,5.8,3.4,7.8,6.1
	h-5.4c-1.7-2.8-3.9-5.2-6.6-7.1l-0.5-0.3c0.9,0.1,1.9,0.3,2.7,0.6l1.6-0.8c2.7-1.6,5.6-3,8.5-4.2c0.7-0.3,1.5-0.4,2.2-0.4
	C50.7,6.6,53.4,9.2,53.4,12.5L53.4,12.5z"/>
<path class="st0" d="M46,20.4h-5.6c1.4,2.8,2.2,5.9,2.3,9.2h0.2c1.6-2.2,3.1-4.4,4.4-6.7C46.9,22,46.5,21.1,46,20.4L46,20.4z"/>
<path class="st0" d="M41.1,31.1H39c0.8,0,1.5,0.3,2.1,0.7c0,0,0,0,0,0C41.1,31.5,41.1,31.3,41.1,31.1L41.1,31.1z"/>
<path class="st0" d="M30.4,34.8l2.6,0.8l3.5-3.5c0.7-0.7,1.5-1,2.5-1h-8.6V34.8z"/>
</svg>
