<?xml version="1.0" encoding="utf-8"?>
<!-- Generator: Adobe Illustrator 27.8.1, SVG Export Plug-In . SVG Version: 6.00 Build 0)  -->
<svg version="1.1" id="Layer_1" xmlns="http://www.w3.org/2000/svg" xmlns:xlink="http://www.w3.org/1999/xlink" x="0px" y="0px"
	 viewBox="0 0 60 60" style="enable-background:new 0 0 60 60;" xml:space="preserve">
<style type="text/css">
	.st0{fill:#BCBCBC;}
	.st1{fill:none;stroke:#000000;stroke-width:0.5;stroke-miterlimit:10;}
	.st2{fill:#070707;}
	.st3{fill:none;stroke:#231F20;stroke-width:0.5;stroke-miterlimit:10;}
</style>
<g>
	<polygon class="st0" points="14.5,43.2 14.5,42.5 13.8,42.9 13.8,44.6 29.2,56.2 47.5,47.6 47.5,46.2 29.6,54 	"/>
	<polygon class="st1" points="32.5,6.9 15,9.3 15,12 15,12.6 15,15.5 12.3,16.6 12.3,18.2 15,19.5 15,21.6 12.3,23.1 12.3,25.2 
		15,26.5 15,27.5 12.3,28.9 12.3,31 15,32.5 15,34.7 12.1,35.8 12.1,37.8 15,39.4 15,42.9 29.6,53.2 47.2,45.4 47.5,14.3 47.5,14.3 
		47.5,11 	"/>
	<polygon points="18.3,40.1 18.3,34.7 21.2,36 21.3,41.9 	"/>
	<polygon points="21.2,21.5 21.2,26.5 18.3,25 18.3,20.2 	"/>
	<polygon points="18.3,17.7 18.3,13 21.2,14.3 21.2,19.2 	"/>
	<polygon points="21.2,28.8 21.2,33.7 18.3,32.2 18.3,27.4 	"/>
	<polygon class="st2" points="26.1,45.2 23.2,43.3 23.2,37.2 26.2,38.6 	"/>
	<polygon points="26.2,36.3 23.2,34.8 23.2,30.1 26.2,31.4 	"/>
	<polygon points="26.2,28.7 23.2,27.3 23.2,22.5 26.2,23.8 	"/>
	<polygon class="st0" points="26.2,21.2 23.2,19.7 23.2,14.9 26.2,16.2 	"/>
	<polygon points="29.1,14.6 17.4,10.1 32.5,8.2 44.3,11.3 	"/>
	<polygon class="st0" points="31,46.4 31,16.6 34.7,15.7 34.8,44.7 	"/>
	<polygon points="36.6,44.1 36.6,15.1 40.2,14.2 40.3,42.6 	"/>
	<polygon class="st0" points="45.8,40.5 42.2,41.9 42.2,13.7 45.8,12.8 	"/>
	<line class="st3" x1="29.6" y1="53.2" x2="29.6" y2="17"/>
</g>
</svg>
